<svg xmlns="http://www.w3.org/2000/svg" width="142.183" height="48.445" viewBox="0 0 142.183 48.445">
  <g id="グループ化_95" data-name="グループ化 95" transform="translate(-1171.585 -56.163)">
    <path id="ペンギンmenu" d="M133.9,454.3a29.887,29.887,0,0,1,6.75-.957c.768-1.912,3.068-5.893,9.206-6.054s7.977,2.39,9.82,2.866c0,0,11.617,4.572,14.578,5.421,4.45,1.273,13.962-1.276,25.315-.48,1.022.071,2.113.2,3.26.362a45.521,45.521,0,0,0,7.328-3.069c7.211-3.984,9.51-6.691,10.894-5.417,1.092,1.008,2.18,4.7-4.387,11.011,8.561,1.5,17.494,2.392,23.719-.973,7.363-3.984,13.654-11.312,15.342-10.2s-.92,10.2-4.3,14.182-.308,3.98.461,4.3c.807.336,1.38,4.78,7.516.318a28.178,28.178,0,0,1,5.524-2.39,24.422,24.422,0,0,1,3.376-.477c1.076,0-.614,2.07-.614,2.07a11.4,11.4,0,0,1,2.607,0c1.535.159-.612,1.594-.612,1.594s1.839.318,3.374.635-1.382,2.072-2.454,2.709-6.136,2.072-9.667,2.711-13.962,2.866-13.962,2.866l-1.227,1.751c-1.227,1.754-7.516,4.78-7.516,4.78s-9.514,13.7-41.122,13.226-42.194-22.146-44.19-25.971-3.525-4.3-6.444-5.735-5.983-5.737-6.6-6.532-3.529-1.116-5.524-.955-2.454,1.592-2.913,1.115S131.749,455.1,133.9,454.3Z" transform="translate(1040.27 -390.495)" fill="#777"/>
    <text id="Menu" transform="translate(1212 72)" fill="#fff" font-size="24" font-family="Helvetica"><tspan x="0" y="18">Menu</tspan></text>
  </g>
</svg>
